<?xml version="1.0" standalone="no"?>
<!DOCTYPE svg PUBLIC "-//W3C//DTD SVG 1.1//EN" "http://www.w3.org/Graphics/SVG/1.1/DTD/svg11.dtd">
<svg version="1.1" width="1200" height="326" onload="init(evt)" viewBox="0 0 1200 326" xmlns="http://www.w3.org/2000/svg" xmlns:xlink="http://www.w3.org/1999/xlink">
<!-- Flame graph stack visualization. See https://github.com/brendangregg/FlameGraph for latest version, and http://www.brendangregg.com/flamegraphs.html for examples. -->
<!-- NOTES:  -->
<defs>
	<linearGradient id="background" y1="0" y2="1" x1="0" x2="0" >
		<stop stop-color="#eeeeee" offset="5%" />
		<stop stop-color="#eeeeb0" offset="95%" />
	</linearGradient>
</defs>
<style type="text/css">
	text { font-family:Verdana; font-size:12px; fill:rgb(0,0,0); }
	#search, #ignorecase { opacity:0.1; cursor:pointer; }
	#search:hover, #search.show, #ignorecase:hover, #ignorecase.show { opacity:1; }
	#subtitle { text-anchor:middle; font-color:rgb(160,160,160); }
	#title { text-anchor:middle; font-size:17px}
	#unzoom { cursor:pointer; }
	#frames > *:hover { stroke:black; stroke-width:0.5; cursor:pointer; }
	.hide { display:none; }
	.parent { opacity:0.5; }
</style>
<script type="text/ecmascript">
<![CDATA[
	"use strict";
	var details, searchbtn, unzoombtn, matchedtxt, svg, searching, currentSearchTerm, ignorecase, ignorecaseBtn;
	function init(evt) {
		details = document.getElementById("details").firstChild;
		searchbtn = document.getElementById("search");
		ignorecaseBtn = document.getElementById("ignorecase");
		unzoombtn = document.getElementById("unzoom");
		matchedtxt = document.getElementById("matched");
		svg = document.getElementsByTagName("svg")[0];
		searching = 0;
		currentSearchTerm = null;
	}

	window.addEventListener("click", function(e) {
		var target = find_group(e.target);
		if (target) {
			if (target.nodeName == "a") {
				if (e.ctrlKey === false) return;
				e.preventDefault();
			}
			if (target.classList.contains("parent")) unzoom();
			zoom(target);
		}
		else if (e.target.id == "unzoom") unzoom();
		else if (e.target.id == "search") search_prompt();
		else if (e.target.id == "ignorecase") toggle_ignorecase();
	}, false)

	// mouse-over for info
	// show
	window.addEventListener("mouseover", function(e) {
		var target = find_group(e.target);
		if (target) details.nodeValue = "Function: " + g_to_text(target);
	}, false)

	// clear
	window.addEventListener("mouseout", function(e) {
		var target = find_group(e.target);
		if (target) details.nodeValue = ' ';
	}, false)

	// ctrl-F for search
	window.addEventListener("keydown",function (e) {
		if (e.keyCode === 114 || (e.ctrlKey && e.keyCode === 70)) {
			e.preventDefault();
			search_prompt();
		}
	}, false)

	// ctrl-I to toggle case-sensitive search
	window.addEventListener("keydown",function (e) {
		if (e.ctrlKey && e.keyCode === 73) {
			e.preventDefault();
			toggle_ignorecase();
		}
	}, false)

	// functions
	function find_child(node, selector) {
		var children = node.querySelectorAll(selector);
		if (children.length) return children[0];
		return;
	}
	function find_group(node) {
		var parent = node.parentElement;
		if (!parent) return;
		if (parent.id == "frames") return node;
		return find_group(parent);
	}
	function orig_save(e, attr, val) {
		if (e.attributes["_orig_" + attr] != undefined) return;
		if (e.attributes[attr] == undefined) return;
		if (val == undefined) val = e.attributes[attr].value;
		e.setAttribute("_orig_" + attr, val);
	}
	function orig_load(e, attr) {
		if (e.attributes["_orig_"+attr] == undefined) return;
		e.attributes[attr].value = e.attributes["_orig_" + attr].value;
		e.removeAttribute("_orig_"+attr);
	}
	function g_to_text(e) {
		var text = find_child(e, "title").firstChild.nodeValue;
		return (text)
	}
	function g_to_func(e) {
		var func = g_to_text(e);
		// if there's any manipulation we want to do to the function
		// name before it's searched, do it here before returning.
		return (func);
	}
	function update_text(e) {
		var r = find_child(e, "rect");
		var t = find_child(e, "text");
		var w = parseFloat(r.attributes.width.value) -3;
		var txt = find_child(e, "title").textContent.replace(/\([^(]*\)$/,"");
		t.attributes.x.value = parseFloat(r.attributes.x.value) + 3;

		// Smaller than this size won't fit anything
		if (w < 2 * 12 * 0.59) {
			t.textContent = "";
			return;
		}

		t.textContent = txt;
		// Fit in full text width
		if (/^ *$/.test(txt) || t.getSubStringLength(0, txt.length) < w)
			return;

		for (var x = txt.length - 2; x > 0; x--) {
			if (t.getSubStringLength(0, x + 2) <= w) {
				t.textContent = txt.substring(0, x) + "..";
				return;
			}
		}
		t.textContent = "";
	}

	// zoom
	function zoom_reset(e) {
		if (e.attributes != undefined) {
			orig_load(e, "x");
			orig_load(e, "width");
		}
		if (e.childNodes == undefined) return;
		for (var i = 0, c = e.childNodes; i < c.length; i++) {
			zoom_reset(c[i]);
		}
	}
	function zoom_child(e, x, ratio) {
		if (e.attributes != undefined) {
			if (e.attributes.x != undefined) {
				orig_save(e, "x");
				e.attributes.x.value = (parseFloat(e.attributes.x.value) - x - 10) * ratio + 10;
				if (e.tagName == "text")
					e.attributes.x.value = find_child(e.parentNode, "rect[x]").attributes.x.value + 3;
			}
			if (e.attributes.width != undefined) {
				orig_save(e, "width");
				e.attributes.width.value = parseFloat(e.attributes.width.value) * ratio;
			}
		}

		if (e.childNodes == undefined) return;
		for (var i = 0, c = e.childNodes; i < c.length; i++) {
			zoom_child(c[i], x - 10, ratio);
		}
	}
	function zoom_parent(e) {
		if (e.attributes) {
			if (e.attributes.x != undefined) {
				orig_save(e, "x");
				e.attributes.x.value = 10;
			}
			if (e.attributes.width != undefined) {
				orig_save(e, "width");
				e.attributes.width.value = parseInt(svg.width.baseVal.value) - (10 * 2);
			}
		}
		if (e.childNodes == undefined) return;
		for (var i = 0, c = e.childNodes; i < c.length; i++) {
			zoom_parent(c[i]);
		}
	}
	function zoom(node) {
		var attr = find_child(node, "rect").attributes;
		var width = parseFloat(attr.width.value);
		var xmin = parseFloat(attr.x.value);
		var xmax = parseFloat(xmin + width);
		var ymin = parseFloat(attr.y.value);
		var ratio = (svg.width.baseVal.value - 2 * 10) / width;

		// XXX: Workaround for JavaScript float issues (fix me)
		var fudge = 0.0001;

		unzoombtn.classList.remove("hide");

		var el = document.getElementById("frames").children;
		for (var i = 0; i < el.length; i++) {
			var e = el[i];
			var a = find_child(e, "rect").attributes;
			var ex = parseFloat(a.x.value);
			var ew = parseFloat(a.width.value);
			var upstack;
			// Is it an ancestor
			if (0 == 0) {
				upstack = parseFloat(a.y.value) > ymin;
			} else {
				upstack = parseFloat(a.y.value) < ymin;
			}
			if (upstack) {
				// Direct ancestor
				if (ex <= xmin && (ex+ew+fudge) >= xmax) {
					e.classList.add("parent");
					zoom_parent(e);
					update_text(e);
				}
				// not in current path
				else
					e.classList.add("hide");
			}
			// Children maybe
			else {
				// no common path
				if (ex < xmin || ex + fudge >= xmax) {
					e.classList.add("hide");
				}
				else {
					zoom_child(e, xmin, ratio);
					update_text(e);
				}
			}
		}
		search();
	}
	function unzoom() {
		unzoombtn.classList.add("hide");
		var el = document.getElementById("frames").children;
		for(var i = 0; i < el.length; i++) {
			el[i].classList.remove("parent");
			el[i].classList.remove("hide");
			zoom_reset(el[i]);
			update_text(el[i]);
		}
		search();
	}

	// search
	function toggle_ignorecase() {
		ignorecase = !ignorecase;
		if (ignorecase) {
			ignorecaseBtn.classList.add("show");
		} else {
			ignorecaseBtn.classList.remove("show");
		}
		reset_search();
		search();
	}
	function reset_search() {
		var el = document.querySelectorAll("#frames rect");
		for (var i = 0; i < el.length; i++) {
			orig_load(el[i], "fill")
		}
	}
	function search_prompt() {
		if (!searching) {
			var term = prompt("Enter a search term (regexp " +
			    "allowed, eg: ^ext4_)"
			    + (ignorecase ? ", ignoring case" : "")
			    + "\nPress Ctrl-i to toggle case sensitivity", "");
			if (term != null) {
				currentSearchTerm = term;
				search();
			}
		} else {
			reset_search();
			searching = 0;
			currentSearchTerm = null;
			searchbtn.classList.remove("show");
			searchbtn.firstChild.nodeValue = "Search"
			matchedtxt.classList.add("hide");
			matchedtxt.firstChild.nodeValue = ""
		}
	}
	function search(term) {
		if (currentSearchTerm === null) return;
		var term = currentSearchTerm;

		var re = new RegExp(term, ignorecase ? 'i' : '');
		var el = document.getElementById("frames").children;
		var matches = new Object();
		var maxwidth = 0;
		for (var i = 0; i < el.length; i++) {
			var e = el[i];
			var func = g_to_func(e);
			var rect = find_child(e, "rect");
			if (func == null || rect == null)
				continue;

			// Save max width. Only works as we have a root frame
			var w = parseFloat(rect.attributes.width.value);
			if (w > maxwidth)
				maxwidth = w;

			if (func.match(re)) {
				// highlight
				var x = parseFloat(rect.attributes.x.value);
				orig_save(rect, "fill");
				rect.attributes.fill.value = "rgb(230,0,230)";

				// remember matches
				if (matches[x] == undefined) {
					matches[x] = w;
				} else {
					if (w > matches[x]) {
						// overwrite with parent
						matches[x] = w;
					}
				}
				searching = 1;
			}
		}
		if (!searching)
			return;

		searchbtn.classList.add("show");
		searchbtn.firstChild.nodeValue = "Reset Search";

		// calculate percent matched, excluding vertical overlap
		var count = 0;
		var lastx = -1;
		var lastw = 0;
		var keys = Array();
		for (k in matches) {
			if (matches.hasOwnProperty(k))
				keys.push(k);
		}
		// sort the matched frames by their x location
		// ascending, then width descending
		keys.sort(function(a, b){
			return a - b;
		});
		// Step through frames saving only the biggest bottom-up frames
		// thanks to the sort order. This relies on the tree property
		// where children are always smaller than their parents.
		var fudge = 0.0001;	// JavaScript floating point
		for (var k in keys) {
			var x = parseFloat(keys[k]);
			var w = matches[keys[k]];
			if (x >= lastx + lastw - fudge) {
				count += w;
				lastx = x;
				lastw = w;
			}
		}
		// display matched percent
		matchedtxt.classList.remove("hide");
		var pct = 100 * count / maxwidth;
		if (pct != 100) pct = pct.toFixed(1)
		matchedtxt.firstChild.nodeValue = "Matched: " + pct + "%";
	}
]]>
</script>
<rect x="0.0" y="0" width="1200.0" height="326.0" fill="url(#background)"  />
<text id="title" x="600.00" y="24" >Flame Graph</text>
<text id="details" x="10.00" y="309" > </text>
<text id="unzoom" x="10.00" y="24" class="hide">Reset Zoom</text>
<text id="search" x="1090.00" y="24" >Search</text>
<text id="ignorecase" x="1174.00" y="24" >ic</text>
<text id="matched" x="1090.00" y="309" > </text>
<g id="frames">
<g >
<title>&lt;__array_function__ internals&gt;:packbits:5 (5 samples, 0.03%)</title><rect x="605.8" y="69" width="0.3" height="15.0" fill="rgb(227,212,32)" rx="2" ry="2" />
<text  x="608.83" y="79.5" ></text>
</g>
<g >
<title>/root/qsgd_env/lib/python3.5/site-packages/torch/distributed/distributed_c10d.py:_check_single_tensor:213 (6 samples, 0.03%)</title><rect x="63.2" y="69" width="0.3" height="15.0" fill="rgb(205,50,25)" rx="2" ry="2" />
<text  x="66.19" y="79.5" ></text>
</g>
<g >
<title>./q.py:ms_allreduce:77 (18 samples, 0.09%)</title><rect x="449.8" y="101" width="1.1" height="15.0" fill="rgb(246,101,18)" rx="2" ry="2" />
<text  x="452.83" y="111.5" ></text>
</g>
<g >
<title>/root/qsgd_env/lib/python3.5/site-packages/numpy/core/multiarray.py:unpackbits:1262 (6 samples, 0.03%)</title><rect x="831.9" y="53" width="0.4" height="15.0" fill="rgb(213,48,40)" rx="2" ry="2" />
<text  x="834.91" y="63.5" ></text>
</g>
<g >
<title>/root/qsgd_env/lib/python3.5/site-packages/torch/distributed/distributed_c10d.py:_check_single_tensor:213 (42 samples, 0.21%)</title><rect x="673.8" y="69" width="2.5" height="15.0" fill="rgb(208,57,48)" rx="2" ry="2" />
<text  x="676.77" y="79.5" ></text>
</g>
<g >
<title>/root/qsgd_env/lib/python3.5/site-packages/torch/distributed/distributed_c10d.py:_check_default_pg:191 (3 samples, 0.02%)</title><rect x="409.7" y="69" width="0.1" height="15.0" fill="rgb(221,12,28)" rx="2" ry="2" />
<text  x="412.67" y="79.5" ></text>
</g>
<g >
<title>./q.py:ms_allreduce:85 (21 samples, 0.11%)</title><rect x="515.0" y="101" width="1.2" height="15.0" fill="rgb(250,222,53)" rx="2" ry="2" />
<text  x="517.98" y="111.5" ></text>
</g>
<g >
<title>&lt;__array_function__ internals&gt;:unpackbits:4 (106 samples, 0.53%)</title><rect x="826.0" y="69" width="6.3" height="15.0" fill="rgb(225,10,4)" rx="2" ry="2" />
<text  x="828.98" y="79.5" ></text>
</g>
<g >
<title>./q.py:ms_allreduce:84 (149 samples, 0.75%)</title><rect x="506.2" y="101" width="8.8" height="15.0" fill="rgb(238,40,18)" rx="2" ry="2" />
<text  x="509.15" y="111.5" ></text>
</g>
<g >
<title>./q.py:ms_allreduce:104 (3,356 samples, 16.84%)</title><rect x="82.8" y="101" width="198.8" height="15.0" fill="rgb(213,82,18)" rx="2" ry="2" />
<text  x="85.79" y="111.5" >./q.py:ms_allreduce:104</text>
</g>
<g >
<title>/usr/lib/python3.5/multiprocessing/context.py:_Popen:212 (19,923 samples, 100.00%)</title><rect x="10.0" y="229" width="1180.0" height="15.0" fill="rgb(243,94,18)" rx="2" ry="2" />
<text  x="13.00" y="239.5" >/usr/lib/python3.5/multiprocessing/context.py:_Popen:212</text>
</g>
<g >
<title>./q.py:ms_allreduce:86 (3,005 samples, 15.08%)</title><rect x="516.2" y="101" width="178.0" height="15.0" fill="rgb(227,64,51)" rx="2" ry="2" />
<text  x="519.22" y="111.5" >./q.py:ms_allreduce:86</text>
</g>
<g >
<title>./q.py:unquantize_vector:35 (693 samples, 3.48%)</title><rect x="240.5" y="85" width="41.1" height="15.0" fill="rgb(207,151,0)" rx="2" ry="2" />
<text  x="243.52" y="95.5" >./q..</text>
</g>
<g >
<title>/root/qsgd_env/lib/python3.5/site-packages/torch/distributed/distributed_c10d.py:get_rank:563 (46 samples, 0.23%)</title><rect x="405.8" y="85" width="2.7" height="15.0" fill="rgb(215,116,27)" rx="2" ry="2" />
<text  x="408.82" y="95.5" ></text>
</g>
<g >
<title>/root/qsgd_env/lib/python3.5/site-packages/torch/distributed/distributed_c10d.py:_check_default_pg:191 (3 samples, 0.02%)</title><rect x="444.1" y="53" width="0.2" height="15.0" fill="rgb(226,107,49)" rx="2" ry="2" />
<text  x="447.08" y="63.5" ></text>
</g>
<g >
<title>./q.py:ms_allreduce:78 (36 samples, 0.18%)</title><rect x="450.9" y="101" width="2.1" height="15.0" fill="rgb(245,121,41)" rx="2" ry="2" />
<text  x="453.89" y="111.5" ></text>
</g>
<g >
<title>/root/qsgd_env/lib/python3.5/site-packages/torch/distributed/distributed_c10d.py:recv:697 (22 samples, 0.11%)</title><rect x="718.4" y="85" width="1.3" height="15.0" fill="rgb(252,69,26)" rx="2" ry="2" />
<text  x="721.37" y="95.5" ></text>
</g>
<g >
<title>./q.py:unquantize_vector:34 (695 samples, 3.49%)</title><rect x="199.4" y="85" width="41.1" height="15.0" fill="rgb(222,18,30)" rx="2" ry="2" />
<text  x="202.35" y="95.5" >./q..</text>
</g>
<g >
<title>/root/qsgd_env/lib/python3.5/site-packages/torch/distributed/distributed_c10d.py:_check_default_pg:192 (3 samples, 0.02%)</title><rect x="409.8" y="69" width="0.2" height="15.0" fill="rgb(206,150,16)" rx="2" ry="2" />
<text  x="412.85" y="79.5" ></text>
</g>
<g >
<title>/usr/lib/python3.5/multiprocessing/popen_fork.py:_launch:74 (19,921 samples, 99.99%)</title><rect x="10.0" y="181" width="1179.9" height="15.0" fill="rgb(250,183,43)" rx="2" ry="2" />
<text  x="13.00" y="191.5" >/usr/lib/python3.5/multiprocessing/popen_fork.py:_launch:74</text>
</g>
<g >
<title>/root/qsgd_env/lib/python3.5/site-packages/torch/distributed/rendezvous.py:rendezvous:46 (19 samples, 0.10%)</title><rect x="13.4" y="101" width="1.1" height="15.0" fill="rgb(208,116,30)" rx="2" ry="2" />
<text  x="16.38" y="111.5" ></text>
</g>
<g >
<title>/root/qsgd_env/lib/python3.5/site-packages/torch/distributed/distributed_c10d.py:recv:696 (8 samples, 0.04%)</title><rect x="63.1" y="85" width="0.5" height="15.0" fill="rgb(246,186,50)" rx="2" ry="2" />
<text  x="66.13" y="95.5" ></text>
</g>
<g >
<title>/root/qsgd_env/lib/python3.5/site-packages/torch/distributed/distributed_c10d.py:_rank_not_in_group:146 (6 samples, 0.03%)</title><rect x="63.7" y="69" width="0.4" height="15.0" fill="rgb(252,115,22)" rx="2" ry="2" />
<text  x="66.72" y="79.5" ></text>
</g>
<g >
<title>/root/qsgd_env/lib/python3.5/site-packages/torch/distributed/distributed_c10d.py:_check_single_tensor:213 (30 samples, 0.15%)</title><rect x="716.4" y="69" width="1.8" height="15.0" fill="rgb(245,192,8)" rx="2" ry="2" />
<text  x="719.41" y="79.5" ></text>
</g>
<g >
<title>/root/qsgd_env/lib/python3.5/site-packages/torch/distributed/distributed_c10d.py:init_process_group:401 (2 samples, 0.01%)</title><rect x="14.6" y="117" width="0.1" height="15.0" fill="rgb(227,102,3)" rx="2" ry="2" />
<text  x="17.56" y="127.5" ></text>
</g>
<g >
<title>./q.py:ms_allreduce:94 (231 samples, 1.16%)</title><rect x="938.4" y="101" width="13.7" height="15.0" fill="rgb(243,137,6)" rx="2" ry="2" />
<text  x="941.40" y="111.5" ></text>
</g>
<g >
<title>/root/qsgd_env/lib/python3.5/site-packages/torch/distributed/distributed_c10d.py:init_process_group:400 (51 samples, 0.26%)</title><rect x="11.5" y="117" width="3.1" height="15.0" fill="rgb(217,67,30)" rx="2" ry="2" />
<text  x="14.54" y="127.5" ></text>
</g>
<g >
<title>/root/qsgd_env/lib/python3.5/site-packages/numpy/core/multiarray.py:unpackbits:1262 (7 samples, 0.04%)</title><rect x="182.5" y="53" width="0.4" height="15.0" fill="rgb(224,211,43)" rx="2" ry="2" />
<text  x="185.53" y="63.5" ></text>
</g>
<g >
<title>./q.py:ms_allreduce:101 (95 samples, 0.48%)</title><rect x="54.5" y="101" width="5.6" height="15.0" fill="rgb(215,96,19)" rx="2" ry="2" />
<text  x="57.48" y="111.5" ></text>
</g>
<g >
<title>/root/qsgd_env/lib/python3.5/site-packages/torch/distributed/distributed_c10d.py:isend:614 (14 samples, 0.07%)</title><rect x="678.6" y="85" width="0.8" height="15.0" fill="rgb(239,53,29)" rx="2" ry="2" />
<text  x="681.57" y="95.5" ></text>
</g>
<g >
<title>./q.py:unquantize_vector:32 (865 samples, 4.34%)</title><rect x="148.1" y="85" width="51.3" height="15.0" fill="rgb(251,180,42)" rx="2" ry="2" />
<text  x="151.12" y="95.5" >./q.p..</text>
</g>
<g >
<title>./q.py:init_processes:188 (377 samples, 1.89%)</title><rect x="10.1" y="133" width="22.3" height="15.0" fill="rgb(228,222,11)" rx="2" ry="2" />
<text  x="13.06" y="143.5" >...</text>
</g>
<g >
<title>./q.py:ms_allreduce:74 (189 samples, 0.95%)</title><rect x="418.6" y="101" width="11.1" height="15.0" fill="rgb(217,87,43)" rx="2" ry="2" />
<text  x="421.55" y="111.5" ></text>
</g>
<g >
<title>/root/qsgd_env/lib/python3.5/site-packages/torch/distributed/distributed_c10d.py:recv:701 (15 samples, 0.08%)</title><rect x="720.1" y="85" width="0.9" height="15.0" fill="rgb(243,137,1)" rx="2" ry="2" />
<text  x="723.08" y="95.5" ></text>
</g>
<g >
<title>./q.py:ms_allreduce:80 (9 samples, 0.05%)</title><rect x="505.6" y="101" width="0.6" height="15.0" fill="rgb(252,6,9)" rx="2" ry="2" />
<text  x="508.62" y="111.5" ></text>
</g>
<g >
<title>./q.py:run:179 (19,498 samples, 97.87%)</title><rect x="34.6" y="117" width="1154.9" height="15.0" fill="rgb(240,16,31)" rx="2" ry="2" />
<text  x="37.64" y="127.5" >./q.py:run:179</text>
</g>
<g >
<title>/root/qsgd_env/lib/python3.5/site-packages/numpy/core/multiarray.py:packbits:1178 (5 samples, 0.03%)</title><rect x="1098.7" y="53" width="0.3" height="15.0" fill="rgb(221,51,20)" rx="2" ry="2" />
<text  x="1101.67" y="63.5" ></text>
</g>
<g >
<title>/root/qsgd_env/lib/python3.5/site-packages/torch/distributed/distributed_c10d.py:recv:716 (255 samples, 1.28%)</title><rect x="722.0" y="85" width="15.1" height="15.0" fill="rgb(241,33,41)" rx="2" ry="2" />
<text  x="724.98" y="95.5" ></text>
</g>
<g >
<title>/root/qsgd_env/lib/python3.5/site-packages/torch/distributed/distributed_c10d.py:new_group:1500 (20 samples, 0.10%)</title><rect x="32.6" y="101" width="1.2" height="15.0" fill="rgb(218,116,4)" rx="2" ry="2" />
<text  x="35.57" y="111.5" ></text>
</g>
<g >
<title>/root/qsgd_env/lib/python3.5/site-packages/torch/distributed/distributed_c10d.py:recv:706 (2 samples, 0.01%)</title><rect x="64.6" y="85" width="0.1" height="15.0" fill="rgb(209,163,24)" rx="2" ry="2" />
<text  x="67.61" y="95.5" ></text>
</g>
<g >
<title>./q.py:ms_allreduce:90 (28 samples, 0.14%)</title><rect x="711.0" y="101" width="1.7" height="15.0" fill="rgb(253,82,15)" rx="2" ry="2" />
<text  x="714.02" y="111.5" ></text>
</g>
<g >
<title>all (19,923 samples, 100%)</title><rect x="10.0" y="277" width="1180.0" height="15.0" fill="rgb(243,137,3)" rx="2" ry="2" />
<text  x="13.00" y="287.5" ></text>
</g>
<g >
<title>/root/qsgd_env/lib/python3.5/site-packages/torch/distributed/distributed_c10d.py:init_process_group:378 (11 samples, 0.06%)</title><rect x="10.8" y="117" width="0.7" height="15.0" fill="rgb(225,229,49)" rx="2" ry="2" />
<text  x="13.83" y="127.5" ></text>
</g>
<g >
<title>&lt;__array_function__ internals&gt;:packbits:4 (64 samples, 0.32%)</title><rect x="602.0" y="69" width="3.8" height="15.0" fill="rgb(210,112,23)" rx="2" ry="2" />
<text  x="605.04" y="79.5" ></text>
</g>
<g >
<title>/root/qsgd_env/lib/python3.5/site-packages/torch/distributed/distributed_c10d.py:isend:610 (29 samples, 0.15%)</title><rect x="676.5" y="85" width="1.7" height="15.0" fill="rgb(229,192,12)" rx="2" ry="2" />
<text  x="679.49" y="95.5" ></text>
</g>
<g >
<title>&lt;__array_function__ internals&gt;:packbits:6 (528 samples, 2.65%)</title><rect x="606.1" y="69" width="31.3" height="15.0" fill="rgb(206,17,35)" rx="2" ry="2" />
<text  x="609.13" y="79.5" >&lt;_..</text>
</g>
<g >
<title>/root/qsgd_env/lib/python3.5/site-packages/torch/distributed/distributed_c10d.py:_rank_not_in_group:146 (22 samples, 0.11%)</title><rect x="1171.5" y="69" width="1.3" height="15.0" fill="rgb(248,77,25)" rx="2" ry="2" />
<text  x="1174.46" y="79.5" ></text>
</g>
<g >
<title>/root/qsgd_env/lib/python3.5/site-packages/torch/distributed/distributed_c10d.py:recv:701 (7 samples, 0.04%)</title><rect x="64.1" y="85" width="0.4" height="15.0" fill="rgb(205,111,27)" rx="2" ry="2" />
<text  x="67.13" y="95.5" ></text>
</g>
<g >
<title>/root/qsgd_env/lib/python3.5/site-packages/torch/distributed/distributed_c10d.py:isend:615 (248 samples, 1.24%)</title><rect x="1174.7" y="85" width="14.7" height="15.0" fill="rgb(208,136,35)" rx="2" ry="2" />
<text  x="1177.72" y="95.5" ></text>
</g>
<g >
<title>/root/qsgd_env/lib/python3.5/site-packages/torch/distributed/distributed_c10d.py:isend:609 (70 samples, 0.35%)</title><rect x="672.3" y="85" width="4.2" height="15.0" fill="rgb(229,187,41)" rx="2" ry="2" />
<text  x="675.35" y="95.5" ></text>
</g>
<g >
<title>./q.py:ms_allreduce:107 (1,514 samples, 7.60%)</title><rect x="313.8" y="101" width="89.7" height="15.0" fill="rgb(249,83,31)" rx="2" ry="2" />
<text  x="316.84" y="111.5" >./q.py:ms_..</text>
</g>
<g >
<title>&lt;__array_function__ internals&gt;:unpackbits:6 (243 samples, 1.22%)</title><rect x="832.5" y="69" width="14.4" height="15.0" fill="rgb(224,200,52)" rx="2" ry="2" />
<text  x="835.50" y="79.5" ></text>
</g>
<g >
<title>&lt;__array_function__ internals&gt;:unpackbits:4 (84 samples, 0.42%)</title><rect x="178.0" y="69" width="4.9" height="15.0" fill="rgb(208,111,37)" rx="2" ry="2" />
<text  x="180.97" y="79.5" ></text>
</g>
<g >
<title>/root/qsgd_env/lib/python3.5/site-packages/torch/distributed/distributed_c10d.py:recv:700 (7 samples, 0.04%)</title><rect x="719.7" y="85" width="0.4" height="15.0" fill="rgb(209,55,28)" rx="2" ry="2" />
<text  x="722.67" y="95.5" ></text>
</g>
<g >
<title>/usr/lib/python3.5/multiprocessing/popen_fork.py:__init__:20 (19,923 samples, 100.00%)</title><rect x="10.0" y="197" width="1180.0" height="15.0" fill="rgb(234,1,38)" rx="2" ry="2" />
<text  x="13.00" y="207.5" >/usr/lib/python3.5/multiprocessing/popen_fork.py:__init__:20</text>
</g>
<g >
<title>/root/qsgd_env/lib/python3.5/site-packages/torch/distributed/distributed_c10d.py:recv:715 (5 samples, 0.03%)</title><rect x="64.7" y="85" width="0.3" height="15.0" fill="rgb(217,14,22)" rx="2" ry="2" />
<text  x="67.73" y="95.5" ></text>
</g>
<g >
<title>&lt;__array_function__ internals&gt;:unpackbits:6 (274 samples, 1.38%)</title><rect x="183.1" y="69" width="16.3" height="15.0" fill="rgb(212,20,23)" rx="2" ry="2" />
<text  x="186.12" y="79.5" ></text>
</g>
<g >
<title>/root/qsgd_env/lib/python3.5/site-packages/torch/distributed/distributed_c10d.py:_check_single_tensor:215 (3 samples, 0.02%)</title><rect x="718.2" y="69" width="0.2" height="15.0" fill="rgb(232,66,15)" rx="2" ry="2" />
<text  x="721.19" y="79.5" ></text>
</g>
<g >
<title>/usr/lib/python3.5/urllib/parse.py:urlsplit:392 (3 samples, 0.02%)</title><rect x="14.0" y="69" width="0.1" height="15.0" fill="rgb(223,193,33)" rx="2" ry="2" />
<text  x="16.97" y="79.5" ></text>
</g>
<g >
<title>/root/qsgd_env/lib/python3.5/site-packages/torch/distributed/distributed_c10d.py:recv:715 (7 samples, 0.04%)</title><rect x="721.6" y="85" width="0.4" height="15.0" fill="rgb(224,120,7)" rx="2" ry="2" />
<text  x="724.57" y="95.5" ></text>
</g>
<g >
<title>/root/qsgd_env/lib/python3.5/site-packages/torch/distributed/distributed_c10d.py:get_rank:567 (3 samples, 0.02%)</title><rect x="410.0" y="85" width="0.2" height="15.0" fill="rgb(252,168,24)" rx="2" ry="2" />
<text  x="413.03" y="95.5" ></text>
</g>
<g >
<title>/root/qsgd_env/lib/python3.5/site-packages/torch/distributed/distributed_c10d.py:_check_default_pg:191 (2 samples, 0.01%)</title><rect x="64.4" y="69" width="0.1" height="15.0" fill="rgb(251,78,9)" rx="2" ry="2" />
<text  x="67.43" y="79.5" ></text>
</g>
<g >
<title>/root/qsgd_env/lib/python3.5/site-packages/torch/distributed/distributed_c10d.py:init_process_group:410 (296 samples, 1.49%)</title><rect x="14.7" y="117" width="17.6" height="15.0" fill="rgb(240,54,34)" rx="2" ry="2" />
<text  x="17.74" y="127.5" ></text>
</g>
<g >
<title>/root/qsgd_env/lib/python3.5/site-packages/torch/distributed/distributed_c10d.py:recv:702 (2 samples, 0.01%)</title><rect x="721.0" y="85" width="0.1" height="15.0" fill="rgb(252,41,14)" rx="2" ry="2" />
<text  x="723.97" y="95.5" ></text>
</g>
<g >
<title>./q.py:quantize_vector:27 (754 samples, 3.78%)</title><rect x="542.0" y="85" width="44.7" height="15.0" fill="rgb(208,43,39)" rx="2" ry="2" />
<text  x="545.05" y="95.5" >./q...</text>
</g>
<g >
<title>/root/qsgd_env/lib/python3.5/site-packages/torch/distributed/distributed_c10d.py:get_world_size:588 (133 samples, 0.67%)</title><rect x="442.0" y="85" width="7.8" height="15.0" fill="rgb(248,23,0)" rx="2" ry="2" />
<text  x="444.95" y="95.5" ></text>
</g>
<g >
<title>/usr/lib/python3.5/multiprocessing/context.py:_Popen:267 (19,923 samples, 100.00%)</title><rect x="10.0" y="213" width="1180.0" height="15.0" fill="rgb(233,204,17)" rx="2" ry="2" />
<text  x="13.00" y="223.5" >/usr/lib/python3.5/multiprocessing/context.py:_Popen:267</text>
</g>
<g >
<title>./q.py:ms_allreduce:99 (3,837 samples, 19.26%)</title><rect x="962.2" y="101" width="227.3" height="15.0" fill="rgb(246,162,6)" rx="2" ry="2" />
<text  x="965.21" y="111.5" >./q.py:ms_allreduce:99</text>
</g>
<g >
<title>./q.py:ms_allreduce:106 (180 samples, 0.90%)</title><rect x="303.2" y="101" width="10.6" height="15.0" fill="rgb(230,55,15)" rx="2" ry="2" />
<text  x="306.18" y="111.5" ></text>
</g>
<g >
<title>./q.py:ms_allreduce:97 (143 samples, 0.72%)</title><rect x="953.1" y="101" width="8.5" height="15.0" fill="rgb(205,217,3)" rx="2" ry="2" />
<text  x="956.09" y="111.5" ></text>
</g>
<g >
<title>/root/qsgd_env/lib/python3.5/site-packages/torch/distributed/distributed_c10d.py:recv:706 (8 samples, 0.04%)</title><rect x="721.1" y="85" width="0.5" height="15.0" fill="rgb(205,161,46)" rx="2" ry="2" />
<text  x="724.09" y="95.5" ></text>
</g>
<g >
<title>./q.py:ms_allreduce:73 (254 samples, 1.27%)</title><rect x="403.5" y="101" width="15.1" height="15.0" fill="rgb(218,112,25)" rx="2" ry="2" />
<text  x="406.51" y="111.5" ></text>
</g>
<g >
<title>/usr/lib/python3.5/multiprocessing/process.py:_bootstrap:252 (4 samples, 0.02%)</title><rect x="1189.5" y="165" width="0.3" height="15.0" fill="rgb(240,91,22)" rx="2" ry="2" />
<text  x="1192.53" y="175.5" ></text>
</g>
<g >
<title>/root/qsgd_env/lib/python3.5/site-packages/torch/distributed/distributed_c10d.py:_check_default_pg:191 (11 samples, 0.06%)</title><rect x="1174.0" y="69" width="0.7" height="15.0" fill="rgb(211,42,51)" rx="2" ry="2" />
<text  x="1177.01" y="79.5" ></text>
</g>
<g >
<title>/root/qsgd_env/lib/python3.5/site-packages/numpy/core/multiarray.py:packbits:1178 (12 samples, 0.06%)</title><rect x="605.1" y="53" width="0.7" height="15.0" fill="rgb(244,204,52)" rx="2" ry="2" />
<text  x="608.12" y="63.5" ></text>
</g>
<g >
<title>/usr/lib/python3.5/urllib/parse.py:urlparse:295 (14 samples, 0.07%)</title><rect x="13.6" y="85" width="0.8" height="15.0" fill="rgb(208,190,25)" rx="2" ry="2" />
<text  x="16.55" y="95.5" ></text>
</g>
<g >
<title>./q.py:ms_allreduce:88 (119 samples, 0.60%)</title><rect x="694.2" y="101" width="7.1" height="15.0" fill="rgb(231,22,36)" rx="2" ry="2" />
<text  x="697.20" y="111.5" ></text>
</g>
<g >
<title>/root/qsgd_env/lib/python3.5/site-packages/torch/distributed/distributed_c10d.py:_get_group_size:202 (91 samples, 0.46%)</title><rect x="444.4" y="69" width="5.4" height="15.0" fill="rgb(248,186,0)" rx="2" ry="2" />
<text  x="447.38" y="79.5" ></text>
</g>
<g >
<title>/root/qsgd_env/lib/python3.5/site-packages/torch/distributed/distributed_c10d.py:__new__:69 (3 samples, 0.02%)</title><rect x="11.2" y="101" width="0.2" height="15.0" fill="rgb(241,130,42)" rx="2" ry="2" />
<text  x="14.24" y="111.5" ></text>
</g>
<g >
<title>&lt;__array_function__ internals&gt;:unpackbits:5 (4 samples, 0.02%)</title><rect x="832.3" y="69" width="0.2" height="15.0" fill="rgb(220,31,13)" rx="2" ry="2" />
<text  x="835.26" y="79.5" ></text>
</g>
<g >
<title>./q.py:run:177 (24 samples, 0.12%)</title><rect x="32.4" y="117" width="1.4" height="15.0" fill="rgb(226,8,44)" rx="2" ry="2" />
<text  x="35.39" y="127.5" ></text>
</g>
<g >
<title>./q.py:ms_allreduce:89 (165 samples, 0.83%)</title><rect x="701.3" y="101" width="9.7" height="15.0" fill="rgb(240,143,43)" rx="2" ry="2" />
<text  x="704.25" y="111.5" ></text>
</g>
<g >
<title>./q.py:quantize_vector:28 (856 samples, 4.30%)</title><rect x="586.7" y="85" width="50.7" height="15.0" fill="rgb(235,60,11)" rx="2" ry="2" />
<text  x="589.70" y="95.5" >./q.p..</text>
</g>
<g >
<title>/root/qsgd_env/lib/python3.5/site-packages/torch/distributed/distributed_c10d.py:_check_default_pg:191 (6 samples, 0.03%)</title><rect x="720.6" y="69" width="0.4" height="15.0" fill="rgb(219,229,3)" rx="2" ry="2" />
<text  x="723.62" y="79.5" ></text>
</g>
<g >
<title>./q.py:init_processes:190 (19,536 samples, 98.06%)</title><rect x="32.4" y="133" width="1157.1" height="15.0" fill="rgb(253,74,14)" rx="2" ry="2" />
<text  x="35.39" y="143.5" >./q.py:init_processes:190</text>
</g>
<g >
<title>/root/qsgd_env/lib/python3.5/site-packages/torch/distributed/rendezvous.py:_tcp_rendezvous_handler:84 (2 samples, 0.01%)</title><rect x="11.7" y="101" width="0.1" height="15.0" fill="rgb(227,92,21)" rx="2" ry="2" />
<text  x="14.72" y="111.5" ></text>
</g>
<g >
<title>./q.py:quantize_vector:29 (590 samples, 2.96%)</title><rect x="637.4" y="85" width="34.9" height="15.0" fill="rgb(205,67,44)" rx="2" ry="2" />
<text  x="640.40" y="95.5" >./..</text>
</g>
<g >
<title>/usr/lib/python3.5/multiprocessing/process.py:run:93 (19,914 samples, 99.95%)</title><rect x="10.0" y="149" width="1179.5" height="15.0" fill="rgb(251,121,15)" rx="2" ry="2" />
<text  x="13.00" y="159.5" >/usr/lib/python3.5/multiprocessing/process.py:run:93</text>
</g>
<g >
<title>/root/qsgd_env/lib/python3.5/site-packages/torch/distributed/distributed_c10d.py:_rank_not_in_group:146 (17 samples, 0.09%)</title><rect x="677.1" y="69" width="1.1" height="15.0" fill="rgb(216,12,14)" rx="2" ry="2" />
<text  x="680.14" y="79.5" ></text>
</g>
<g >
<title>./q.py:unquantize_vector:35 (716 samples, 3.59%)</title><rect x="893.5" y="85" width="42.4" height="15.0" fill="rgb(251,34,20)" rx="2" ry="2" />
<text  x="896.50" y="95.5" >./q..</text>
</g>
<g >
<title>./q.py:ms_allreduce:79 (888 samples, 4.46%)</title><rect x="453.0" y="101" width="52.6" height="15.0" fill="rgb(212,228,14)" rx="2" ry="2" />
<text  x="456.03" y="111.5" >./q.p..</text>
</g>
<g >
<title>/root/qsgd_env/lib/python3.5/site-packages/torch/distributed/distributed_c10d.py:_check_single_tensor:213 (44 samples, 0.22%)</title><rect x="1168.0" y="69" width="2.6" height="15.0" fill="rgb(220,42,50)" rx="2" ry="2" />
<text  x="1170.97" y="79.5" ></text>
</g>
<g >
<title>/root/qsgd_env/lib/python3.5/site-packages/torch/distributed/distributed_c10d.py:_rank_not_in_group:146 (19 samples, 0.10%)</title><rect x="407.2" y="69" width="1.1" height="15.0" fill="rgb(224,120,43)" rx="2" ry="2" />
<text  x="410.18" y="79.5" ></text>
</g>
<g >
<title>/root/qsgd_env/lib/python3.5/site-packages/torch/distributed/distributed_c10d.py:isend:609 (83 samples, 0.42%)</title><rect x="1165.9" y="85" width="4.9" height="15.0" fill="rgb(225,0,2)" rx="2" ry="2" />
<text  x="1168.89" y="95.5" ></text>
</g>
<g >
<title>&lt;__array_function__ internals&gt;:packbits:6 (552 samples, 2.77%)</title><rect x="1099.1" y="69" width="32.7" height="15.0" fill="rgb(211,28,9)" rx="2" ry="2" />
<text  x="1102.14" y="79.5" >&lt;_..</text>
</g>
<g >
<title>/root/qsgd_env/lib/python3.5/site-packages/torch/distributed/distributed_c10d.py:_check_default_pg:191 (6 samples, 0.03%)</title><rect x="679.0" y="69" width="0.3" height="15.0" fill="rgb(244,18,52)" rx="2" ry="2" />
<text  x="681.98" y="79.5" ></text>
</g>
<g >
<title>/usr/lib/python3.5/multiprocessing/process.py:start:105 (19,923 samples, 100.00%)</title><rect x="10.0" y="245" width="1180.0" height="15.0" fill="rgb(241,149,50)" rx="2" ry="2" />
<text  x="13.00" y="255.5" >/usr/lib/python3.5/multiprocessing/process.py:start:105</text>
</g>
<g >
<title>./q.py:quantize_vector:29 (575 samples, 2.89%)</title><rect x="1131.8" y="85" width="34.1" height="15.0" fill="rgb(242,13,23)" rx="2" ry="2" />
<text  x="1134.84" y="95.5" >./..</text>
</g>
<g >
<title>/usr/lib/python3.5/multiprocessing/process.py:_bootstrap:249 (19,914 samples, 99.95%)</title><rect x="10.0" y="165" width="1179.5" height="15.0" fill="rgb(219,118,41)" rx="2" ry="2" />
<text  x="13.00" y="175.5" >/usr/lib/python3.5/multiprocessing/process.py:_bootstrap:249</text>
</g>
<g >
<title>/root/qsgd_env/lib/python3.5/site-packages/torch/distributed/distributed_c10d.py:_rank_not_in_group:146 (7 samples, 0.04%)</title><rect x="719.1" y="69" width="0.5" height="15.0" fill="rgb(230,166,11)" rx="2" ry="2" />
<text  x="722.14" y="79.5" ></text>
</g>
<g >
<title>/root/qsgd_env/lib/python3.5/site-packages/torch/distributed/distributed_c10d.py:_get_group_size:200 (9 samples, 0.05%)</title><rect x="442.8" y="69" width="0.6" height="15.0" fill="rgb(222,226,53)" rx="2" ry="2" />
<text  x="445.84" y="79.5" ></text>
</g>
<g >
<title>/root/qsgd_env/lib/python3.5/site-packages/torch/distributed/distributed_c10d.py:isend:613 (6 samples, 0.03%)</title><rect x="678.2" y="85" width="0.4" height="15.0" fill="rgb(247,196,15)" rx="2" ry="2" />
<text  x="681.21" y="95.5" ></text>
</g>
<g >
<title>./q.py:ms_allreduce:103 (347 samples, 1.74%)</title><rect x="62.2" y="101" width="20.6" height="15.0" fill="rgb(233,137,16)" rx="2" ry="2" />
<text  x="65.24" y="111.5" ></text>
</g>
<g >
<title>/root/qsgd_env/lib/python3.5/site-packages/torch/distributed/distributed_c10d.py:isend:614 (27 samples, 0.14%)</title><rect x="1173.1" y="85" width="1.6" height="15.0" fill="rgb(252,208,33)" rx="2" ry="2" />
<text  x="1176.12" y="95.5" ></text>
</g>
<g >
<title>/root/qsgd_env/lib/python3.5/site-packages/torch/distributed/distributed_c10d.py:get_world_size:585 (29 samples, 0.15%)</title><rect x="440.2" y="85" width="1.8" height="15.0" fill="rgb(214,138,35)" rx="2" ry="2" />
<text  x="443.23" y="95.5" ></text>
</g>
<g >
<title>/usr/lib/python3.5/urllib/parse.py:urlparse:294 (2 samples, 0.01%)</title><rect x="13.4" y="85" width="0.2" height="15.0" fill="rgb(222,216,19)" rx="2" ry="2" />
<text  x="16.44" y="95.5" ></text>
</g>
<g >
<title>/root/qsgd_env/lib/python3.5/site-packages/torch/distributed/distributed_c10d.py:_get_group_size:201 (17 samples, 0.09%)</title><rect x="443.4" y="69" width="1.0" height="15.0" fill="rgb(242,106,32)" rx="2" ry="2" />
<text  x="446.37" y="79.5" ></text>
</g>
<g >
<title>&lt;__array_function__ internals&gt;:packbits:5 (3 samples, 0.02%)</title><rect x="1099.0" y="69" width="0.1" height="15.0" fill="rgb(233,85,30)" rx="2" ry="2" />
<text  x="1101.97" y="79.5" ></text>
</g>
<g >
<title>/root/qsgd_env/lib/python3.5/site-packages/torch/distributed/distributed_c10d.py:_check_single_tensor:215 (4 samples, 0.02%)</title><rect x="676.3" y="69" width="0.2" height="15.0" fill="rgb(231,40,43)" rx="2" ry="2" />
<text  x="679.26" y="79.5" ></text>
</g>
<g >
<title>/root/qsgd_env/lib/python3.5/site-packages/torch/distributed/distributed_c10d.py:_rank_not_in_group:147 (5 samples, 0.03%)</title><rect x="1172.8" y="69" width="0.3" height="15.0" fill="rgb(249,49,35)" rx="2" ry="2" />
<text  x="1175.76" y="79.5" ></text>
</g>
<g >
<title>./q.py:ms_allreduce:102 (36 samples, 0.18%)</title><rect x="60.1" y="101" width="2.1" height="15.0" fill="rgb(252,78,27)" rx="2" ry="2" />
<text  x="63.11" y="111.5" ></text>
</g>
<g >
<title>./q.py:quantize_vector:28 (990 samples, 4.97%)</title><rect x="1073.2" y="85" width="58.6" height="15.0" fill="rgb(205,76,13)" rx="2" ry="2" />
<text  x="1076.20" y="95.5" >./q.py..</text>
</g>
<g >
<title>/usr/lib/python3.5/urllib/parse.py:urlsplit:393 (3 samples, 0.02%)</title><rect x="14.1" y="69" width="0.2" height="15.0" fill="rgb(238,5,15)" rx="2" ry="2" />
<text  x="17.15" y="79.5" ></text>
</g>
<g >
<title>./q.py:quantize_vector:27 (1,018 samples, 5.11%)</title><rect x="1012.9" y="85" width="60.3" height="15.0" fill="rgb(253,36,12)" rx="2" ry="2" />
<text  x="1015.91" y="95.5" >./q.py..</text>
</g>
<g >
<title>/root/qsgd_env/lib/python3.5/site-packages/torch/distributed/distributed_c10d.py:isend:615 (249 samples, 1.25%)</title><rect x="679.4" y="85" width="14.7" height="15.0" fill="rgb(254,37,24)" rx="2" ry="2" />
<text  x="682.40" y="95.5" ></text>
</g>
<g >
<title>/root/qsgd_env/lib/python3.5/site-packages/torch/distributed/distributed_c10d.py:_new_process_group_helper:471 (2 samples, 0.01%)</title><rect x="14.8" y="101" width="0.1" height="15.0" fill="rgb(206,65,5)" rx="2" ry="2" />
<text  x="17.80" y="111.5" ></text>
</g>
<g >
<title>/root/qsgd_env/lib/python3.5/site-packages/torch/distributed/distributed_c10d.py:_new_process_group_helper:478 (292 samples, 1.47%)</title><rect x="14.9" y="101" width="17.3" height="15.0" fill="rgb(229,89,8)" rx="2" ry="2" />
<text  x="17.92" y="111.5" ></text>
</g>
<g >
<title>./q.py:unquantize_vector:32 (807 samples, 4.05%)</title><rect x="799.1" y="85" width="47.8" height="15.0" fill="rgb(240,84,16)" rx="2" ry="2" />
<text  x="802.10" y="95.5" >./q...</text>
</g>
<g >
<title>/root/qsgd_env/lib/python3.5/site-packages/torch/distributed/distributed_c10d.py:recv:716 (300 samples, 1.51%)</title><rect x="65.0" y="85" width="17.8" height="15.0" fill="rgb(216,10,21)" rx="2" ry="2" />
<text  x="68.02" y="95.5" ></text>
</g>
<g >
<title>./q.py:ms_allreduce:98 (11 samples, 0.06%)</title><rect x="961.6" y="101" width="0.6" height="15.0" fill="rgb(228,182,17)" rx="2" ry="2" />
<text  x="964.56" y="111.5" ></text>
</g>
<g >
<title>/root/qsgd_env/lib/python3.5/site-packages/torch/distributed/distributed_c10d.py:_rank_not_in_group:146 (15 samples, 0.08%)</title><rect x="440.9" y="69" width="0.9" height="15.0" fill="rgb(236,179,44)" rx="2" ry="2" />
<text  x="443.88" y="79.5" ></text>
</g>
<g >
<title>./q.py:ms_allreduce:93 (42 samples, 0.21%)</title><rect x="935.9" y="101" width="2.5" height="15.0" fill="rgb(232,83,36)" rx="2" ry="2" />
<text  x="938.91" y="111.5" ></text>
</g>
<g >
<title>./q.py:&lt;module&gt;:196 (19,923 samples, 100.00%)</title><rect x="10.0" y="261" width="1180.0" height="15.0" fill="rgb(238,53,15)" rx="2" ry="2" />
<text  x="13.00" y="271.5" >./q.py:&lt;module&gt;:196</text>
</g>
<g >
<title>/root/qsgd_env/lib/python3.5/site-packages/torch/distributed/distributed_c10d.py:_new_process_group_helper:478 (19 samples, 0.10%)</title><rect x="32.6" y="85" width="1.2" height="15.0" fill="rgb(247,96,28)" rx="2" ry="2" />
<text  x="35.63" y="95.5" ></text>
</g>
<g >
<title>./q.py:ms_allreduce:95 (17 samples, 0.09%)</title><rect x="952.1" y="101" width="1.0" height="15.0" fill="rgb(211,110,28)" rx="2" ry="2" />
<text  x="955.08" y="111.5" ></text>
</g>
<g >
<title>./q.py:unquantize_vector:34 (787 samples, 3.95%)</title><rect x="846.9" y="85" width="46.6" height="15.0" fill="rgb(241,51,51)" rx="2" ry="2" />
<text  x="849.89" y="95.5" >./q...</text>
</g>
<g >
<title>/root/qsgd_env/lib/python3.5/site-packages/torch/distributed/distributed_c10d.py:recv:697 (8 samples, 0.04%)</title><rect x="63.6" y="85" width="0.5" height="15.0" fill="rgb(253,122,47)" rx="2" ry="2" />
<text  x="66.60" y="95.5" ></text>
</g>
<g >
<title>/root/qsgd_env/lib/python3.5/site-packages/torch/distributed/distributed_c10d.py:_check_single_tensor:215 (4 samples, 0.02%)</title><rect x="1170.6" y="69" width="0.2" height="15.0" fill="rgb(221,125,33)" rx="2" ry="2" />
<text  x="1173.57" y="79.5" ></text>
</g>
<g >
<title>/root/qsgd_env/lib/python3.5/site-packages/torch/distributed/distributed_c10d.py:recv:696 (54 samples, 0.27%)</title><rect x="715.2" y="85" width="3.2" height="15.0" fill="rgb(239,65,18)" rx="2" ry="2" />
<text  x="718.17" y="95.5" ></text>
</g>
<g >
<title>/root/qsgd_env/lib/python3.5/site-packages/torch/distributed/distributed_c10d.py:init_process_group:361 (2 samples, 0.01%)</title><rect x="10.7" y="117" width="0.1" height="15.0" fill="rgb(253,59,51)" rx="2" ry="2" />
<text  x="13.65" y="127.5" ></text>
</g>
<g >
<title>&lt;__array_function__ internals&gt;:packbits:4 (69 samples, 0.35%)</title><rect x="1094.9" y="69" width="4.1" height="15.0" fill="rgb(249,222,8)" rx="2" ry="2" />
<text  x="1097.88" y="79.5" ></text>
</g>
<g >
<title>/usr/lib/python3.5/multiprocessing/popen_fork.py:_launch:76 (2 samples, 0.01%)</title><rect x="1189.9" y="181" width="0.1" height="15.0" fill="rgb(248,169,53)" rx="2" ry="2" />
<text  x="1192.88" y="191.5" ></text>
</g>
<g >
<title>./q.py:ms_allreduce:92 (3,357 samples, 16.85%)</title><rect x="737.1" y="101" width="198.8" height="15.0" fill="rgb(217,178,32)" rx="2" ry="2" />
<text  x="740.08" y="111.5" >./q.py:ms_allreduce:92</text>
</g>
<g >
<title>&lt;__array_function__ internals&gt;:unpackbits:5 (3 samples, 0.02%)</title><rect x="182.9" y="69" width="0.2" height="15.0" fill="rgb(236,133,27)" rx="2" ry="2" />
<text  x="185.95" y="79.5" ></text>
</g>
<g >
<title>/root/qsgd_env/lib/python3.5/site-packages/torch/distributed/distributed_c10d.py:get_rank:568 (141 samples, 0.71%)</title><rect x="410.2" y="85" width="8.4" height="15.0" fill="rgb(218,67,34)" rx="2" ry="2" />
<text  x="413.20" y="95.5" ></text>
</g>
<g >
<title>./q.py:ms_allreduce:105 (365 samples, 1.83%)</title><rect x="281.6" y="101" width="21.6" height="15.0" fill="rgb(238,171,19)" rx="2" ry="2" />
<text  x="284.56" y="111.5" >...</text>
</g>
<g >
<title>./q.py:ms_allreduce:76 (206 samples, 1.03%)</title><rect x="437.6" y="101" width="12.2" height="15.0" fill="rgb(248,39,31)" rx="2" ry="2" />
<text  x="440.63" y="111.5" ></text>
</g>
<g >
<title>/root/qsgd_env/lib/python3.5/site-packages/torch/distributed/rendezvous.py:_tcp_rendezvous_handler:95 (24 samples, 0.12%)</title><rect x="12.0" y="101" width="1.4" height="15.0" fill="rgb(241,29,15)" rx="2" ry="2" />
<text  x="14.95" y="111.5" ></text>
</g>
<g >
<title>/root/qsgd_env/lib/python3.5/site-packages/torch/distributed/rendezvous.py:_tcp_rendezvous_handler:86 (2 samples, 0.01%)</title><rect x="11.8" y="101" width="0.2" height="15.0" fill="rgb(207,145,21)" rx="2" ry="2" />
<text  x="14.84" y="111.5" ></text>
</g>
<g >
<title>/root/qsgd_env/lib/python3.5/site-packages/torch/distributed/distributed_c10d.py:_rank_not_in_group:147 (3 samples, 0.02%)</title><rect x="441.8" y="69" width="0.2" height="15.0" fill="rgb(205,95,7)" rx="2" ry="2" />
<text  x="444.77" y="79.5" ></text>
</g>
<g >
<title>/usr/lib/python3.5/multiprocessing/process.py:_bootstrap:268 (2 samples, 0.01%)</title><rect x="1189.8" y="165" width="0.1" height="15.0" fill="rgb(254,190,28)" rx="2" ry="2" />
<text  x="1192.76" y="175.5" ></text>
</g>
<g >
<title>./q.py:run:178 (14 samples, 0.07%)</title><rect x="33.8" y="117" width="0.8" height="15.0" fill="rgb(222,197,21)" rx="2" ry="2" />
<text  x="36.81" y="127.5" ></text>
</g>
<g >
<title>/usr/lib/python3.5/urllib/parse.py:_checknetloc:322 (3 samples, 0.02%)</title><rect x="14.0" y="53" width="0.1" height="15.0" fill="rgb(236,203,7)" rx="2" ry="2" />
<text  x="16.97" y="63.5" ></text>
</g>
<g >
<title>/root/qsgd_env/lib/python3.5/site-packages/torch/distributed/distributed_c10d.py:init_process_group:412 (2 samples, 0.01%)</title><rect x="32.3" y="117" width="0.1" height="15.0" fill="rgb(225,29,49)" rx="2" ry="2" />
<text  x="35.27" y="127.5" ></text>
</g>
<g >
<title>/usr/lib/python3.5/urllib/parse.py:&lt;genexpr&gt;:322 (2 samples, 0.01%)</title><rect x="14.0" y="37" width="0.1" height="15.0" fill="rgb(251,71,14)" rx="2" ry="2" />
<text  x="17.03" y="47.5" ></text>
</g>
<g >
<title>/root/qsgd_env/lib/python3.5/site-packages/torch/distributed/distributed_c10d.py:_check_default_pg:192 (2 samples, 0.01%)</title><rect x="444.3" y="53" width="0.1" height="15.0" fill="rgb(220,202,24)" rx="2" ry="2" />
<text  x="447.26" y="63.5" ></text>
</g>
<g >
<title>./q.py:ms_allreduce:91 (412 samples, 2.07%)</title><rect x="712.7" y="101" width="24.4" height="15.0" fill="rgb(225,5,38)" rx="2" ry="2" />
<text  x="715.68" y="111.5" >...</text>
</g>
<g >
<title>/root/qsgd_env/lib/python3.5/site-packages/torch/distributed/distributed_c10d.py:_rank_not_in_group:147 (4 samples, 0.02%)</title><rect x="408.3" y="69" width="0.2" height="15.0" fill="rgb(218,183,19)" rx="2" ry="2" />
<text  x="411.31" y="79.5" ></text>
</g>
<g >
<title>/root/qsgd_env/lib/python3.5/site-packages/torch/distributed/distributed_c10d.py:isend:610 (38 samples, 0.19%)</title><rect x="1170.8" y="85" width="2.3" height="15.0" fill="rgb(219,93,47)" rx="2" ry="2" />
<text  x="1173.81" y="95.5" ></text>
</g>
<g >
<title>/root/qsgd_env/lib/python3.5/site-packages/torch/distributed/distributed_c10d.py:get_rank:566 (25 samples, 0.13%)</title><rect x="408.5" y="85" width="1.5" height="15.0" fill="rgb(247,161,10)" rx="2" ry="2" />
<text  x="411.55" y="95.5" ></text>
</g>
<g >
<title>./q.py:ms_allreduce:75 (133 samples, 0.67%)</title><rect x="429.7" y="101" width="7.9" height="15.0" fill="rgb(224,227,4)" rx="2" ry="2" />
<text  x="432.75" y="111.5" ></text>
</g>
</g>
</svg>
